<svg xmlns="http://www.w3.org/2000/svg" viewBox="0 0 32 32" fill="none" role="img" aria-label="Healing Touch">
  <rect width="32" height="32" rx="8" fill="#2F5D4E"/>
  <path
    d="M16 7.5c-3.4 0-6 2.7-6 6 0 4.1 6 10.5 6 10.5s6-6.4 6-10.5c0-3.3-2.7-6-6-6z"
    fill="#FAFAF9"
  />
  <path
    d="M16 11c-1.5 0-2.7 1.2-2.7 2.7 0 1.8 2.7 4.8 2.7 4.8s2.7-3 2.7-4.8c0-1.5-1.2-2.7-2.7-2.7z"
    fill="#2F5D4E"
  />
  <path
    d="M9 23c2.2-2.5 4.6-3.8 7-3.8s4.8 1.3 7 3.8"
    stroke="#C8DDD4"
    stroke-width="1.5"
    stroke-linecap="round"
  />
</svg>
