<svg xmlns="http://www.w3.org/2000/svg" viewBox="0 0 200 40" fill="none" role="img" aria-label="Healing Touch">
  <g transform="translate(0, 0)">
    <rect width="40" height="40" rx="10" fill="#2F5D4E"/>
    <path
      d="M20 9c-4.2 0-7.5 3.4-7.5 7.6 0 5.2 7.5 13.4 7.5 13.4s7.5-8.2 7.5-13.4C27.5 12.4 24.2 9 20 9z"
      fill="#FAFAF9"
      opacity="0.95"
    />
    <path
      d="M20 13.2c-1.9 0-3.4 1.5-3.4 3.4 0 2.3 3.4 6.1 3.4 6.1s3.4-3.8 3.4-6.1c0-1.9-1.5-3.4-3.4-3.4z"
      fill="#2F5D4E"
    />
    <path
      d="M11 28.5c2.8-3.2 5.8-4.8 9-4.8s6.2 1.6 9 4.8"
      stroke="#C8DDD4"
      stroke-width="1.75"
      stroke-linecap="round"
    />
  </g>
  <text
    x="52"
    y="27"
    font-family="Georgia, 'Times New Roman', serif"
    font-size="20"
    font-weight="500"
    fill="#1A2E28"
    letter-spacing="-0.3"
  >
    Healing Touch
  </text>
</svg>
